# Blender 4.3.2
# www.blender.org
o Rotation
v 0.010000 0.800000 -0.000000
v 0.010000 -0.000000 -0.800000
v 0.010000 0.156072 -0.784628
v 0.010000 0.306147 -0.739104
v 0.010000 0.444456 -0.665176
v 0.010000 0.565685 -0.565686
v 0.010000 0.665176 -0.444456
v 0.010000 0.739104 -0.306147
v 0.010000 0.784628 -0.156072
v 0.010000 1.000000 -0.000000
v 0.010000 -0.000000 -1.000000
v 0.010000 0.195090 -0.980785
v 0.010000 0.382683 -0.923880
v 0.010000 0.555570 -0.831470
v 0.010000 0.707107 -0.707107
v 0.010000 0.831470 -0.555570
v 0.010000 0.923880 -0.382684
v 0.010000 0.980785 -0.195090
v 0.000000 0.800000 -0.000000
v 0.000000 -0.000000 -0.800000
v 0.000000 0.156072 -0.784628
v 0.000000 0.306147 -0.739104
v 0.000000 0.444456 -0.665176
v 0.000000 0.565685 -0.565686
v 0.000000 0.665176 -0.444456
v 0.000000 0.739104 -0.306147
v 0.000000 0.784628 -0.156072
v 0.000000 1.000000 -0.000000
v 0.000000 -0.000000 -1.000000
v 0.000000 0.195090 -0.980785
v 0.000000 0.382683 -0.923880
v 0.000000 0.555570 -0.831470
v 0.000000 0.707107 -0.707107
v 0.000000 0.831470 -0.555570
v 0.000000 0.923880 -0.382684
v 0.000000 0.980785 -0.195090
vn 1.0000 -0.0000 -0.0000
vn -1.0000 -0.0000 -0.0000
vn -0.0000 -0.1951 0.9808
vn -0.0000 -0.0980 0.9952
vn -0.0000 -0.3827 0.9239
vn -0.0000 -0.5556 0.8315
vn -0.0000 -0.7071 0.7071
vn -0.0000 -0.8315 0.5556
vn -0.0000 -0.9239 0.3827
vn -0.0000 -0.9808 0.1951
vn -0.0000 -0.9952 0.0980
vn -0.0000 -1.0000 -0.0000
vn -0.0000 -0.0000 1.0000
vn -0.0000 0.0980 -0.9952
vn -0.0000 0.1951 -0.9808
vn -0.0000 0.3827 -0.9239
vn -0.0000 0.5556 -0.8315
vn -0.0000 0.7071 -0.7071
vn -0.0000 0.8315 -0.5556
vn -0.0000 0.9239 -0.3827
vn -0.0000 0.9808 -0.1951
vn -0.0000 0.9952 -0.0980
vt 0.407107 1.000000
vt 0.307107 0.900000
vt 0.495045 0.892847
vt 0.377457 0.814278
vt 0.560388 0.770598
vt 0.429732 0.716478
vt 0.600627 0.637950
vt 0.461923 0.610360
vt 0.614214 0.500000
vt 0.600627 0.362050
vt 0.472792 0.500000
vt 0.560388 0.229402
vt 0.461923 0.389640
vt 0.495045 0.107152
vt 0.429732 0.283522
vt 0.407107 -0.000000
vt 0.377457 0.185722
vt 0.307107 0.100000
vt 0.207107 1.000000
vt 0.119169 0.892847
vt 0.307107 0.900000
vt 0.236757 0.814278
vt 0.053825 0.770598
vt 0.184482 0.716478
vt 0.013587 0.637950
vt 0.152291 0.610360
vt 0.000000 0.500000
vt 0.013587 0.362050
vt 0.141421 0.500000
vt 0.053825 0.229402
vt 0.152291 0.389640
vt 0.119169 0.107153
vt 0.184482 0.283522
vt 0.207107 -0.000000
vt 0.236757 0.185722
vt 0.307107 0.100000
vt 0.628356 0.648654
vt 0.621285 0.538590
vt 0.628356 0.538590
vt 0.628356 0.759245
vt 0.621285 0.648654
vt 0.628356 0.866112
vt 0.621285 0.759245
vt 0.628356 0.965150
vt 0.621285 0.866112
vt 0.635427 0.099037
vt 0.628356 0.000000
vt 0.635427 0.000000
vt 0.635427 0.205905
vt 0.628356 0.099037
vt 0.628356 0.316495
vt 0.628356 0.205905
vt 0.635427 0.426559
vt 0.635427 0.316495
vt 0.635427 0.702549
vt 0.628356 0.564554
vt 0.635427 0.564554
vt 0.628356 0.426559
vt 0.621285 0.000000
vt 0.628356 0.135954
vt 0.621285 0.135954
vt 0.628356 0.274571
vt 0.621285 0.274571
vt 0.628356 0.410525
vt 0.621285 0.410525
vt 0.621285 0.538590
vt 0.628356 0.538590
vt 0.614214 -0.000000
vt 0.621285 0.128066
vt 0.614214 0.128066
vt 0.621285 0.264019
vt 0.614214 0.264019
vt 0.621285 0.402636
vt 0.614214 0.402636
vt 0.614214 0.538590
vt 0.621285 0.965150
vt 0.628356 0.426559
vt 0.628356 0.702549
vt 0.628356 0.000000
vt 0.621285 -0.000000
s 1
f 10/1/1 1/2/1 18/3/1
f 9/4/1 18/3/1 1/2/1
f 18/3/1 9/4/1 17/5/1
f 9/4/1 8/6/1 17/5/1
f 17/5/1 8/6/1 16/7/1
f 8/6/1 7/8/1 16/7/1
f 16/7/1 7/8/1 15/9/1
f 14/10/1 15/9/1 6/11/1
f 13/12/1 14/10/1 5/13/1
f 12/14/1 13/12/1 4/15/1
f 11/16/1 12/14/1 3/17/1
f 3/17/1 2/18/1 11/16/1
f 4/15/1 3/17/1 12/14/1
f 5/13/1 4/15/1 13/12/1
f 6/11/1 5/13/1 14/10/1
f 7/8/1 6/11/1 15/9/1
f 28/19/2 36/20/2 19/21/2
f 27/22/2 19/21/2 36/20/2
f 36/20/2 35/23/2 27/22/2
f 27/22/2 35/23/2 26/24/2
f 35/23/2 34/25/2 26/24/2
f 26/24/2 34/25/2 25/26/2
f 34/25/2 33/27/2 25/26/2
f 32/28/2 24/29/2 33/27/2
f 31/30/2 23/31/2 32/28/2
f 30/32/2 22/33/2 31/30/2
f 29/34/2 21/35/2 30/32/2
f 21/35/2 29/34/2 20/36/2
f 22/33/2 30/32/2 21/35/2
f 23/31/2 31/30/2 22/33/2
f 24/29/2 32/28/2 23/31/2
f 25/26/2 33/27/2 24/29/2
f 3/37/3 20/38/4 2/39/4
f 4/40/5 21/41/3 3/37/3
f 5/42/6 22/43/5 4/40/5
f 6/44/7 23/45/6 5/42/6
f 7/46/8 24/47/7 6/48/7
f 8/49/9 25/50/8 7/46/8
f 8/49/9 27/51/10 26/52/9
f 1/53/11 27/51/10 9/54/10
f 2/55/12 29/56/12 11/57/12
f 10/57/13 19/58/13 1/53/13
f 11/59/14 30/60/15 12/61/15
f 12/61/15 31/62/16 13/63/16
f 13/63/16 32/64/17 14/65/17
f 15/66/18 32/64/17 33/67/18
f 15/68/18 34/69/19 16/70/19
f 16/70/19 35/71/20 17/72/20
f 17/72/20 36/73/21 18/74/21
f 18/74/21 28/38/22 10/75/22
f 3/37/3 21/41/3 20/38/4
f 4/40/5 22/43/5 21/41/3
f 5/42/6 23/45/6 22/43/5
f 6/44/7 24/76/7 23/45/6
f 7/46/8 25/50/8 24/47/7
f 8/49/9 26/52/9 25/50/8
f 8/49/9 9/54/10 27/51/10
f 1/53/11 19/77/11 27/51/10
f 2/55/12 20/78/12 29/56/12
f 10/57/13 28/56/13 19/58/13
f 11/59/14 29/79/14 30/60/15
f 12/61/15 30/60/15 31/62/16
f 13/63/16 31/62/16 32/64/17
f 15/66/18 14/65/17 32/64/17
f 15/68/18 33/80/18 34/69/19
f 16/70/19 34/69/19 35/71/20
f 17/72/20 35/71/20 36/73/21
f 18/74/21 36/73/21 28/38/22
