# Blender 4.3.2
# www.blender.org
o Scale
v 0.000000 0.000000 -0.030000
v 1.000000 0.000000 -0.030000
v 0.000000 -0.011481 -0.027716
v 1.000000 -0.011481 -0.027716
v 0.000000 -0.021213 -0.021213
v 1.000000 -0.021213 -0.021213
v 0.000000 -0.027716 -0.011481
v 1.000000 -0.027716 -0.011480
v 0.000000 -0.030000 -0.000000
v 1.000000 -0.030000 0.000000
v 0.000000 -0.027716 0.011480
v 1.000000 -0.027716 0.011481
v 0.000000 -0.021213 0.021213
v 1.000000 -0.021213 0.021213
v 0.000000 -0.011481 0.027716
v 1.000000 -0.011481 0.027716
v 0.000000 0.000000 0.030000
v 1.000000 0.000000 0.030000
v 0.000000 0.011481 0.027716
v 1.000000 0.011481 0.027716
v 0.000000 0.021213 0.021213
v 1.000000 0.021213 0.021213
v 0.000000 0.027716 0.011480
v 1.000000 0.027716 0.011481
v 0.000000 0.030000 -0.000000
v 1.000000 0.030000 0.000000
v 0.000000 0.027716 -0.011481
v 1.000000 0.027716 -0.011480
v 0.000000 0.021213 -0.021213
v 1.000000 0.021213 -0.021213
v 0.000000 0.011481 -0.027716
v 1.000000 0.011481 -0.027716
v 1.260000 0.130000 0.130000
v 1.260000 0.130000 -0.130000
v 1.000000 0.130000 0.130000
v 1.000000 0.130000 -0.130000
v 1.260000 -0.130000 0.130000
v 1.260000 -0.130000 -0.130000
v 1.000000 -0.130000 0.130000
v 1.000000 -0.130000 -0.130000
vn -0.0000 -0.0000 -1.0000
vn -0.0000 -0.3827 -0.9239
vn -0.0000 -0.7071 -0.7071
vn -0.0000 -0.9239 -0.3827
vn -0.0000 -1.0000 -0.0000
vn -0.0000 -0.9239 0.3827
vn -0.0000 -0.7071 0.7071
vn -0.0000 -0.3827 0.9239
vn -0.0000 -0.0000 1.0000
vn -0.0000 0.3827 0.9239
vn -0.0000 0.7071 0.7071
vn -0.0000 0.9239 0.3827
vn -0.0000 1.0000 -0.0000
vn -0.0000 0.9239 -0.3827
vn -0.0000 0.7071 -0.7071
vn -0.0000 0.3827 -0.9239
vn -1.0000 -0.0000 -0.0000
vn 1.0000 -0.0000 -0.0000
vt 0.843640 0.000000
vt 0.855120 1.000000
vt 0.843640 1.000000
vt 0.855120 0.000000
vt 0.864853 1.000000
vt 0.822426 1.000000
vt 0.812694 -0.000000
vt 0.822426 -0.000000
vt 0.812694 1.000000
vt 0.801213 -0.000000
vt 0.801213 1.000000
vt 0.789733 0.000000
vt 0.789733 1.000000
vt 0.780000 0.000000
vt 0.864853 0.000000
vt 0.874586 1.000000
vt 0.864853 1.000000
vt 0.874586 0.000000
vt 0.886066 1.000000
vt 0.886066 0.000000
vt 0.897547 1.000000
vt 0.897547 0.000000
vt 0.907279 1.000000
vt 0.907279 -0.000000
vt 0.917012 1.000000
vt 0.917012 -0.000000
vt 0.928493 1.000000
vt 0.928493 -0.000000
vt 0.939973 1.000000
vt 0.939973 -0.000000
vt 0.949706 1.000000
vt 0.822426 0.000000
vt 0.832159 1.000000
vt 0.832159 0.000000
vt 0.532757 0.314368
vt 0.524480 0.272756
vt 0.566091 0.264479
vt 0.260000 0.260000
vt 0.520000 0.000000
vt 0.520000 0.260000
vt 0.000000 0.260000
vt 0.260000 0.000000
vt 0.260000 0.260000
vt 0.260000 0.520000
vt 0.520000 0.520000
vt 0.000000 0.520000
vt 0.260000 0.260000
vt 0.260000 0.520000
vt 0.780000 0.260000
vt 0.520000 -0.000000
vt 0.780000 0.000000
vt 0.260000 0.780000
vt -0.000000 0.520000
vt 0.260000 0.520000
vt 0.864853 0.000000
vt 0.780000 1.000000
vt 0.907279 0.000000
vt 0.949706 -0.000000
vt 0.574368 0.272756
vt 0.578847 0.283571
vt 0.578847 0.295276
vt 0.574368 0.306091
vt 0.566091 0.314368
vt 0.555276 0.318847
vt 0.543571 0.318847
vt 0.524480 0.306091
vt 0.520000 0.295276
vt 0.520000 0.283571
vt 0.532757 0.264479
vt 0.543571 0.260000
vt 0.555276 0.260000
vt 0.260000 0.000000
vt 0.000000 0.000000
vt 0.260000 0.260000
vt 0.000000 0.260000
vt 0.520000 0.260000
vt -0.000000 0.780000
s 1
f 2/1/1 3/2/2 1/3/1
f 4/4/2 5/5/3 3/2/2
f 6/6/3 7/7/4 5/8/3
f 8/9/4 9/10/5 7/7/4
f 10/11/5 11/12/6 9/10/5
f 12/13/6 13/14/7 11/12/6
f 14/15/7 15/16/8 13/17/7
f 16/18/8 17/19/9 15/16/8
f 18/20/9 19/21/10 17/19/9
f 20/22/10 21/23/11 19/21/10
f 22/24/11 23/25/12 21/23/11
f 24/26/12 25/27/13 23/25/12
f 26/28/13 27/29/14 25/27/13
f 28/30/14 29/31/15 27/29/14
f 30/32/15 31/33/16 29/6/15
f 32/34/16 1/3/1 31/33/16
f 15/35/17 23/36/17 31/37/17
s 0
f 34/38/13 35/39/13 33/40/13
f 36/41/17 39/42/17 35/43/17
f 40/44/5 37/40/5 39/45/5
f 38/46/18 33/47/18 37/48/18
f 39/49/9 33/50/9 35/51/9
f 36/52/1 38/53/1 40/54/1
s 1
f 2/1/1 4/4/2 3/2/2
f 4/4/2 6/55/3 5/5/3
f 6/6/3 8/9/4 7/7/4
f 8/9/4 10/11/5 9/10/5
f 10/11/5 12/13/6 11/12/6
f 12/13/6 14/56/7 13/14/7
f 14/15/7 16/18/8 15/16/8
f 16/18/8 18/20/9 17/19/9
f 18/20/9 20/22/10 19/21/10
f 20/22/10 22/57/11 21/23/11
f 22/24/11 24/26/12 23/25/12
f 24/26/12 26/28/13 25/27/13
f 26/28/13 28/30/14 27/29/14
f 28/30/14 30/58/15 29/31/15
f 30/32/15 32/34/16 31/33/16
f 32/34/16 2/1/1 1/3/1
f 31/37/17 1/59/17 3/60/17
f 3/60/17 5/61/17 7/62/17
f 7/62/17 9/63/17 11/64/17
f 11/64/17 13/65/17 15/35/17
f 15/35/17 17/66/17 19/67/17
f 19/67/17 21/68/17 23/36/17
f 23/36/17 25/69/17 27/70/17
f 27/70/17 29/71/17 31/37/17
f 31/37/17 3/60/17 7/62/17
f 7/62/17 11/64/17 15/35/17
f 15/35/17 19/67/17 23/36/17
f 23/36/17 27/70/17 31/37/17
f 31/37/17 7/62/17 15/35/17
s 0
f 34/38/13 36/72/13 35/39/13
f 36/41/17 40/73/17 39/42/17
f 40/44/5 38/74/5 37/40/5
f 38/46/18 34/75/18 33/47/18
f 39/49/9 37/76/9 33/50/9
f 36/52/1 34/77/1 38/53/1
